<svg xmlns="http://www.w3.org/2000/svg" viewBox="0 0 237.91 92.95"><defs><style>.cls-1,.cls-2,.cls-3{fill:#fff;}.cls-2{opacity:0.75;}.cls-3{opacity:0.3;}.cls-4{fill:#ffc200;}</style></defs><g id="Ebene_2" data-name="Ebene 2"><g id="Ebene_4" data-name="Ebene 4"><path class="cls-1" d="M116.61,36.13V20.22h-5L105.15,27,91,24.21l-5.69-4H65.47V93H85.22V64.54H99.3c4.22-1.93,10.46-4.8,14.18-6.52V48.63H85.22V36.13Z"/><polygon class="cls-1" points="110.39 68.38 124.28 64.42 122.39 70.95 110.39 68.38"/><path class="cls-1" d="M0,93V20.22H31.53a38.28,38.28,0,0,1,14,2.24,18.46,18.46,0,0,1,8.56,6.32A16.2,16.2,0,0,1,57,38.4a15.35,15.35,0,0,1-1.76,7.32,15.66,15.66,0,0,1-4.92,5.52,19.33,19.33,0,0,1-7.38,3.07V55a18.47,18.47,0,0,1,8.52,2.36,16.54,16.54,0,0,1,6.11,6,17.22,17.22,0,0,1,2.27,9A18.61,18.61,0,0,1,56.69,83a21,21,0,0,1-8.82,7.32A32.16,32.16,0,0,1,34.23,93ZM19.74,49.63h8.1a12,12,0,0,0,4.58-.82,7.06,7.06,0,0,0,3.11-2.36,6.32,6.32,0,0,0,1.12-3.79,6,6,0,0,0-2.42-5.16,9.93,9.93,0,0,0-6.11-1.8H19.74Zm0,27.55H29c3.31,0,5.8-.62,7.45-1.86a6.48,6.48,0,0,0,2.49-5.52,7.73,7.73,0,0,0-1.17-4.34,7.38,7.38,0,0,0-3.32-2.7,13.17,13.17,0,0,0-5.17-.92H19.74Z"/><polygon class="cls-1" points="113.89 10.83 109.06 18.86 94.68 19.09 88.27 16.4 113.89 10.83"/><polygon class="cls-2" points="150.37 31.47 151.74 14.06 175.44 0 150.37 31.47"/><polygon class="cls-3" points="149.1 70.95 201.57 64.42 237.91 89.45 225.57 92.95 149.1 70.95"/><polygon class="cls-4" points="172.24 22.41 155.57 33.46 155.57 40.15 172.1 29.16 172.52 29.16 172.52 92.95 178.96 92.95 178.96 22.41 172.24 22.41"/><path class="cls-4" d="M114.21,87.16v-.44l17.5-19.54q5.85-6.47,9.16-11a34.38,34.38,0,0,0,4.67-8.13,21.58,21.58,0,0,0,1.36-7.54,18.54,18.54,0,0,0-2.62-9.72,19,19,0,0,0-7.2-6.87,21,21,0,0,0-9.9-2.51v5.7a15.72,15.72,0,0,1,6.63,1.65,12.93,12.93,0,0,1,5.15,4.7,13.08,13.08,0,0,1,1.88,7.05,16.6,16.6,0,0,1-1.26,6.37,30.35,30.35,0,0,1-4,6.68c-1.83,2.41-4.26,5.32-7.26,8.72l-23.05,25.9V93H149.1V87.16Z"/></g></g></svg>