<svg xmlns="http://www.w3.org/2000/svg" viewBox="0 0 588.22 170.37"><defs><style>.cls-1{fill:#fff;}</style></defs><g id="Ebene_2" data-name="Ebene 2"><g id="Ebene_2-2" data-name="Ebene 2"><path class="cls-1" d="M0,101V28.27H31.53a38.28,38.28,0,0,1,14,2.24,18.46,18.46,0,0,1,8.56,6.32A16.2,16.2,0,0,1,57,46.45a15.37,15.37,0,0,1-1.76,7.32,15.66,15.66,0,0,1-4.92,5.52,19.33,19.33,0,0,1-7.38,3.07v.71a18.47,18.47,0,0,1,8.52,2.36,16.59,16.59,0,0,1,6.11,6,17.28,17.28,0,0,1,2.27,9A18.61,18.61,0,0,1,56.69,91a20.87,20.87,0,0,1-8.82,7.31A32,32,0,0,1,34.23,101ZM19.74,57.67h8.1a12,12,0,0,0,4.58-.81,7.08,7.08,0,0,0,3.11-2.37,6.31,6.31,0,0,0,1.12-3.78,6,6,0,0,0-2.42-5.16,9.93,9.93,0,0,0-6.11-1.8H19.74Zm0,27.56H29c3.31,0,5.8-.62,7.45-1.86a6.49,6.49,0,0,0,2.49-5.53,7.69,7.69,0,0,0-1.17-4.33,7.38,7.38,0,0,0-3.32-2.7,13.17,13.17,0,0,0-5.17-.92H19.74Z"/><path class="cls-1" d="M106.11,101h21.45L112.78,73.87a21.32,21.32,0,0,0,8.9-7.71A23.77,23.77,0,0,0,125.14,53a25.07,25.07,0,0,0-3.37-13.29,22,22,0,0,0-9.45-8.48,32,32,0,0,0-14.17-2.95H66.76V101H86.5V77h6.84ZM86.5,44h7a16.66,16.66,0,0,1,6,.94,7.74,7.74,0,0,1,3.8,2.91,8.9,8.9,0,0,1,1.33,5.1,8.59,8.59,0,0,1-1.33,5,7.49,7.49,0,0,1-3.8,2.79,18,18,0,0,1-6,.87h-7Z"/><path class="cls-1" d="M177.71,101H199L175,28.27H148L124,101h21.31l4.2-13.92h24ZM154,72.3l7.25-24h.56l7.25,24Z"/><path class="cls-1" d="M221.47,28.27V101H201.73V28.27Z"/><path class="cls-1" d="M295.19,64.36V28.27H275.45V66.34h-.57L249,28.27H232.26V101H252V62.79h.42L278.71,101h16.48V81.07l-17.93-3.82,6.17-7.36Z"/><path class="cls-1" d="M357.12,44.18V28.27h-5l-6.42,6.82-14.11-2.83-5.69-4H306V101h19.75V72.59h14.08c4.22-1.93,10.46-4.8,14.18-6.52V56.68H325.73V44.18Z"/><path class="cls-1" d="M410.38,73.88a21.34,21.34,0,0,0,8.9-7.72,23.14,23.14,0,0,0,3.44-12c-6.09.75-15.14,1.49-21,1.94a7,7,0,0,1-.9,1.86A7.5,7.5,0,0,1,397,60.78a18,18,0,0,1-5.95.87h-7V54.48c-6.27,1.57-15.34,3.86-19.75,5.09v26l19.75,3.33V77h6.83l12.77,24h21.45Z"/><path class="cls-1" d="M491.47,68.23,469.12,61.7l3.2,10.61H457.26l3.91-12.94-6-1.74-5.14,2.67L443,53.5,427.29,101H448.6l4.2-13.92h24L478,91l21.83,2.45Z"/><path class="cls-1" d="M553.75,67.79l.15-.31-28.71-1.79,3.25,4.46-18.83,38.28L532,106.34l10.3-22.64.57,0,8.93,12.7L558.06,89l3.27-11.18Z"/><polygon class="cls-1" points="390.8 93.8 389.88 105.84 370.18 104.33 371.36 88.97 390.8 93.8"/><path class="cls-1" d="M403.63,48.7a10.44,10.44,0,0,0,.31-3.16,9,9,0,0,0-1.55-5,7.84,7.84,0,0,0-3.91-2.75,16.68,16.68,0,0,0-6-.69l-6.95.29L386,47.78c-6.2,1.83-15.16,4.49-19.52,5.9l-1.3-31.27,19.6-.81c4.34,2.78,10.1,6.67,10.1,6.67s15.78,3.65,16.81,3.3c.55-.18,3.39-2,5.9-3.64a21.63,21.63,0,0,1,3,3.62,25.14,25.14,0,0,1,3.92,13.13c0,.41,0,.81,0,1.21C418.49,46.89,409.47,48,403.63,48.7Z"/><path class="cls-1" d="M420.46,20.05c-2.27,2-4.84,4.15-5.36,4.4-1,.48-17.1-1-17.1-1s-6.23-3.09-10.9-5.26l11.6-2.06a31.94,31.94,0,0,1,14.46.43A22.69,22.69,0,0,1,420.46,20.05Z"/><polygon class="cls-1" points="494.67 57.34 471.8 52.96 466.5 40 465.94 40.05 463.67 51.39 457.56 50.22 452.69 53.37 444.99 47.27 450.9 21.36 461.92 20.31 467.54 27.14 488.06 42.28 494.67 57.34"/><polygon class="cls-1" points="502.95 108.21 481.82 105.42 480.14 95.14 501.46 100.42 502.95 108.21"/><polygon class="cls-1" points="488.76 34.36 467.34 20.52 461.31 14.05 477.02 11.57 488.76 34.36"/><path class="cls-1" d="M558.49,53.15,554,60.62l-28.42-4.45-11.52-19.4c3.22-1.84,6.59-3.83,6.59-3.83l11.25-3.19,9,16h.57l9.09-15.94,7.34,7.86S557.82,47.21,558.49,53.15Z"/><path class="cls-1" d="M580.93,104.35l-5.36,1.32s-3,2.35-5.85,4.59l-7.66-.45-4.15-8.38,7.36-6.34,4.93-10.55Z"/><path class="cls-1" d="M588.22,117.16l-14.55,3.28c2.17-3,4.35-6,4.35-6l4.79-2.75Z"/><path class="cls-1" d="M585.59,0,573.3,31c-1.62-5.75-3-15.22-3-15.22l-8.51-6.58,2.11-5.64Z"/><path class="cls-1" d="M528.79,20.68l-10.6,4.93s-3,2.5-5.9,4.83l-9.1-10.91L525.07,16Z"/><polygon class="cls-1" points="490.73 11.57 498.58 2.68 508.86 4.39 495.15 11.57 490.73 11.57"/><polygon class="cls-1" points="434.83 17.65 429.21 26.68 437.23 36.62 437.23 24.17 440.32 19.86 434.83 17.65"/><polygon class="cls-1" points="502.95 57.34 514.09 58.65 515.99 54.2 508.86 53.68 502.95 57.34"/><polygon class="cls-1" points="303.15 72.54 297.51 88.27 281.92 78.63 290.21 73.78 303.15 72.54"/><polygon class="cls-1" points="343.81 76.43 357.7 72.46 355.81 78.99 343.81 76.43"/><polygon class="cls-1" points="354.4 18.88 349.57 26.91 335.18 27.14 328.77 24.45 354.4 18.88"/><path class="cls-1" d="M107.51,145.89h-4.22a8.89,8.89,0,0,0-1.31-3.2,9.07,9.07,0,0,0-2.25-2.33,9.78,9.78,0,0,0-2.92-1.42,11.58,11.58,0,0,0-3.34-.48,10.67,10.67,0,0,0-5.74,1.6,11.05,11.05,0,0,0-4.07,4.73,20.13,20.13,0,0,0,0,15.3,11,11,0,0,0,4.07,4.72,10.6,10.6,0,0,0,5.74,1.61,11.58,11.58,0,0,0,3.34-.48,9.78,9.78,0,0,0,2.92-1.42,9.12,9.12,0,0,0,2.25-2.34,9,9,0,0,0,1.31-3.2h4.22a13.81,13.81,0,0,1-1.73,4.79,13.09,13.09,0,0,1-3.14,3.59,13.48,13.48,0,0,1-4.2,2.24,15.54,15.54,0,0,1-5,.77,14.63,14.63,0,0,1-7.94-2.18A15,15,0,0,1,80.05,162a23.89,23.89,0,0,1,0-19.09,15,15,0,0,1,5.48-6.2,14.54,14.54,0,0,1,7.94-2.18,15.82,15.82,0,0,1,5,.76,13.72,13.72,0,0,1,4.2,2.25,13,13,0,0,1,3.14,3.58A13.81,13.81,0,0,1,107.51,145.89Z"/><path class="cls-1" d="M153.39,152.44a21.24,21.24,0,0,1-2,9.54,15,15,0,0,1-5.47,6.21,15.57,15.57,0,0,1-15.89,0,15,15,0,0,1-5.47-6.21,23.89,23.89,0,0,1,0-19.09,15,15,0,0,1,5.47-6.2,15.57,15.57,0,0,1,15.89,0,14.93,14.93,0,0,1,5.47,6.2A21.31,21.31,0,0,1,153.39,152.44Zm-4.1,0a17.56,17.56,0,0,0-1.5-7.65,11.14,11.14,0,0,0-4.08-4.73,11.08,11.08,0,0,0-11.47,0,11.05,11.05,0,0,0-4.07,4.73,20.13,20.13,0,0,0,0,15.3,11,11,0,0,0,4.07,4.72,11,11,0,0,0,11.47,0,11.05,11.05,0,0,0,4.08-4.72A17.56,17.56,0,0,0,149.29,152.44Z"/><path class="cls-1" d="M197.76,135v34.91h-4.09l-19-27.41h-.34v27.41h-4.22V135h4.09l19.09,27.48h.34V135Z"/><path class="cls-1" d="M215.81,169.89V135h20.93v3.75H220v11.8h15.14v3.75H220v15.61Z"/><path class="cls-1" d="M253.57,169.89V135h21.07v3.75H257.8v11.8h15.75v3.75H257.8v11.86h17.11v3.75Z"/><path class="cls-1" d="M291.88,169.89V135h11.79a14.38,14.38,0,0,1,6.72,1.39,9,9,0,0,1,3.88,3.81,11.77,11.77,0,0,1,1.26,5.51,11.52,11.52,0,0,1-1.26,5.47,8.81,8.81,0,0,1-3.87,3.74,14.29,14.29,0,0,1-6.66,1.36h-9.55v-3.82h9.41a10.45,10.45,0,0,0,4.51-.82,5.19,5.19,0,0,0,2.49-2.33,7.72,7.72,0,0,0,.78-3.6,8.16,8.16,0,0,0-.79-3.67,5.39,5.39,0,0,0-2.5-2.42,10.17,10.17,0,0,0-4.56-.87H296.1v31.16Zm16.43-15.68,8.59,15.68H312l-8.46-15.68Z"/><path class="cls-1" d="M332.16,169.89V135h21.06v3.75H336.38v11.8h15.75v3.75H336.38v11.86H353.5v3.75Z"/><path class="cls-1" d="M398.14,135v34.91h-4.09l-19-27.41h-.34v27.41h-4.23V135h4.09l19.09,27.48H394V135Z"/><path class="cls-1" d="M444.29,145.89h-4.23a8.88,8.88,0,0,0-1.3-3.2,9.07,9.07,0,0,0-2.25-2.33,9.83,9.83,0,0,0-2.93-1.42,11.53,11.53,0,0,0-3.34-.48,10.66,10.66,0,0,0-5.73,1.6,11.14,11.14,0,0,0-4.08,4.73,20.13,20.13,0,0,0,0,15.3,11.05,11.05,0,0,0,4.08,4.72,10.59,10.59,0,0,0,5.73,1.61,11.53,11.53,0,0,0,3.34-.48,9.83,9.83,0,0,0,2.93-1.42,9.12,9.12,0,0,0,2.25-2.34,9,9,0,0,0,1.3-3.2h4.23a14,14,0,0,1-1.74,4.79,12.92,12.92,0,0,1-3.14,3.59,13.48,13.48,0,0,1-4.2,2.24,15.54,15.54,0,0,1-5,.77,14.68,14.68,0,0,1-7.94-2.18,15,15,0,0,1-5.47-6.21,23.78,23.78,0,0,1,0-19.09,14.93,14.93,0,0,1,5.47-6.2,14.59,14.59,0,0,1,7.94-2.18,15.82,15.82,0,0,1,5,.76,13.72,13.72,0,0,1,4.2,2.25,12.88,12.88,0,0,1,3.14,3.58A14,14,0,0,1,444.29,145.89Z"/><path class="cls-1" d="M460.71,169.89V135h21.06v3.75H464.93v11.8h15.75v3.75H464.93v11.86h17.12v3.75Z"/></g></g></svg>